<svg xmlns="http://www.w3.org/2000/svg" viewBox="0 0 64 64" role="img" aria-labelledby="title desc">
  <title id="title">WaveCap live listening icon</title>
  <desc id="desc">Rounded square with a speaker emitting audio waves in red</desc>
  <defs>
    <linearGradient id="g" x1="12" y1="12" x2="52" y2="52" gradientUnits="userSpaceOnUse">
      <stop offset="0" stop-color="#b91c1c" />
      <stop offset="1" stop-color="#ef4444" />
    </linearGradient>
  </defs>
  <rect x="6" y="6" width="52" height="52" rx="14" fill="url(#g)" />
  <path d="M22 25.5h6.4l9.6-7.4v27.8l-9.6-7.4H22a3.5 3.5 0 0 1-3.5-3.5v-6a3.5 3.5 0 0 1 3.5-3.5z" fill="#fee2e2" />
  <path d="M43 24a1.5 1.5 0 0 1 2.2.2 14 14 0 0 1 0 15.6 1.5 1.5 0 1 1-2.4-1.8 11 11 0 0 0 0-12.4A1.5 1.5 0 0 1 43 24z" fill="#fca5a5" />
  <path d="M39.8 27.2a1.5 1.5 0 1 1 2.4-1.8 10 10 0 0 1 0 12.8 1.5 1.5 0 0 1-2.4-1.8 7 7 0 0 0 0-9.2z" fill="#fecaca" />
</svg>
